<svg width="286" height="77" viewBox="0 0 286 77" fill="none" xmlns="http://www.w3.org/2000/svg">
<rect x="24" y="6" width="226" height="71" fill="#F8F4EF"/>
<rect x="30" width="226" height="71" fill="#71B482"/>
<path d="M83.2202 31.722H77.7482V42H75.1382V29.4H85.8302V42H83.2202V31.722ZM90.6346 35.7C90.6346 36.504 90.8026 37.218 91.1386 37.842C91.4746 38.466 91.9366 38.958 92.5246 39.318C93.1126 39.678 93.7966 39.858 94.5766 39.858C95.3566 39.858 96.0406 39.678 96.6286 39.318C97.2166 38.958 97.6726 38.466 97.9966 37.842C98.3326 37.218 98.5006 36.504 98.5006 35.7C98.5006 34.896 98.3386 34.182 98.0146 33.558C97.6906 32.934 97.2346 32.442 96.6466 32.082C96.0586 31.722 95.3686 31.542 94.5766 31.542C93.7966 31.542 93.1126 31.722 92.5246 32.082C91.9366 32.442 91.4746 32.934 91.1386 33.558C90.8026 34.182 90.6346 34.896 90.6346 35.7ZM87.9166 35.7C87.9166 34.74 88.0846 33.864 88.4206 33.072C88.7566 32.268 89.2246 31.572 89.8246 30.984C90.4246 30.396 91.1266 29.946 91.9306 29.634C92.7466 29.31 93.6286 29.148 94.5766 29.148C95.5366 29.148 96.4186 29.31 97.2226 29.634C98.0266 29.946 98.7286 30.396 99.3286 30.984C99.9406 31.572 100.409 32.268 100.733 33.072C101.069 33.864 101.237 34.74 101.237 35.7C101.237 36.648 101.069 37.53 100.733 38.346C100.409 39.15 99.9466 39.852 99.3466 40.452C98.7586 41.052 98.0566 41.52 97.2406 41.856C96.4366 42.18 95.5486 42.342 94.5766 42.342C93.6046 42.342 92.7106 42.18 91.8946 41.856C91.0906 41.52 90.3886 41.052 89.7886 40.452C89.1886 39.852 88.7266 39.15 88.4026 38.346C88.0786 37.53 87.9166 36.648 87.9166 35.7ZM108.963 33.63L106.065 41.46H103.131L108.963 28.77L114.795 41.46H111.861L108.963 33.63ZM113.391 42H104.535V43.98H102.033V39.75H115.893V43.98H113.391V42ZM126.234 31.722H120.762V42H118.152V29.4H128.844V42H126.234V31.722ZM143.008 32.118L131.65 42.63L131.74 39.282L143.098 28.77L143.008 32.118ZM134.134 29.4V39.948L131.65 42.63V29.4H134.134ZM143.098 28.77V42H140.614V31.524L143.098 28.77ZM147.906 35.7C147.906 36.528 148.092 37.254 148.464 37.878C148.848 38.49 149.346 38.964 149.958 39.3C150.57 39.624 151.236 39.786 151.956 39.786C152.556 39.786 153.09 39.708 153.558 39.552C154.026 39.396 154.446 39.186 154.818 38.922C155.202 38.658 155.532 38.37 155.808 38.058V40.956C155.292 41.364 154.728 41.682 154.116 41.91C153.516 42.138 152.754 42.252 151.83 42.252C150.87 42.252 149.976 42.096 149.148 41.784C148.332 41.472 147.618 41.022 147.006 40.434C146.406 39.846 145.938 39.156 145.602 38.364C145.278 37.56 145.116 36.672 145.116 35.7C145.116 34.728 145.278 33.846 145.602 33.054C145.938 32.25 146.406 31.554 147.006 30.966C147.618 30.378 148.332 29.928 149.148 29.616C149.976 29.304 150.87 29.148 151.83 29.148C152.754 29.148 153.516 29.262 154.116 29.49C154.728 29.718 155.292 30.036 155.808 30.444V33.342C155.532 33.03 155.202 32.742 154.818 32.478C154.446 32.214 154.026 32.004 153.558 31.848C153.09 31.692 152.556 31.614 151.956 31.614C151.236 31.614 150.57 31.782 149.958 32.118C149.346 32.442 148.848 32.91 148.464 33.522C148.092 34.134 147.906 34.86 147.906 35.7ZM159.851 39.138L160.157 37.104H166.205L166.511 39.138H159.851ZM163.145 33.486L161.255 37.824L161.309 38.4L159.653 42H156.755L163.145 28.662L169.535 42H166.619L164.999 38.508L165.035 37.86L163.145 33.486ZM168.377 31.722V29.4H177.737V31.722H174.335V42H171.761V31.722H168.377ZM179.199 29.4H181.773V42H179.199V29.4ZM180.765 36.15V33.972H183.267C184.263 33.972 185.109 34.134 185.805 34.458C186.513 34.782 187.053 35.244 187.425 35.844C187.797 36.444 187.983 37.158 187.983 37.986C187.983 38.802 187.797 39.516 187.425 40.128C187.053 40.728 186.513 41.19 185.805 41.514C185.109 41.838 184.263 42 183.267 42H180.765V39.822H183.267C183.723 39.822 184.113 39.756 184.437 39.624C184.773 39.48 185.031 39.27 185.211 38.994C185.391 38.718 185.481 38.382 185.481 37.986C185.481 37.59 185.391 37.254 185.211 36.978C185.031 36.702 184.773 36.498 184.437 36.366C184.113 36.222 183.723 36.15 183.267 36.15H180.765ZM192.044 35.7C192.044 36.528 192.23 37.254 192.602 37.878C192.986 38.49 193.484 38.964 194.096 39.3C194.708 39.624 195.374 39.786 196.094 39.786C196.694 39.786 197.228 39.708 197.696 39.552C198.164 39.396 198.584 39.186 198.956 38.922C199.34 38.658 199.67 38.37 199.946 38.058V40.956C199.43 41.364 198.866 41.682 198.254 41.91C197.654 42.138 196.892 42.252 195.968 42.252C195.008 42.252 194.114 42.096 193.286 41.784C192.47 41.472 191.756 41.022 191.144 40.434C190.544 39.846 190.076 39.156 189.74 38.364C189.416 37.56 189.254 36.672 189.254 35.7C189.254 34.728 189.416 33.846 189.74 33.054C190.076 32.25 190.544 31.554 191.144 30.966C191.756 30.378 192.47 29.928 193.286 29.616C194.114 29.304 195.008 29.148 195.968 29.148C196.892 29.148 197.654 29.262 198.254 29.49C198.866 29.718 199.43 30.036 199.946 30.444V33.342C199.67 33.03 199.34 32.742 198.956 32.478C198.584 32.214 198.164 32.004 197.696 31.848C197.228 31.692 196.694 31.614 196.094 31.614C195.374 31.614 194.708 31.782 194.096 32.118C193.484 32.442 192.986 32.91 192.602 33.522C192.23 34.134 192.044 34.86 192.044 35.7ZM208.07 36.132L204.29 42H201.248L205.352 36.132H208.07ZM210.932 29.4V42H208.358V29.4H210.932ZM209.366 31.596H206.864C206.42 31.596 206.03 31.674 205.694 31.83C205.358 31.974 205.1 32.19 204.92 32.478C204.74 32.754 204.65 33.09 204.65 33.486C204.65 33.882 204.74 34.224 204.92 34.512C205.1 34.788 205.358 35.004 205.694 35.16C206.03 35.304 206.42 35.376 206.864 35.376H209.366V37.428H206.702C205.718 37.428 204.872 37.26 204.164 36.924C203.468 36.588 202.934 36.12 202.562 35.52C202.19 34.908 202.004 34.206 202.004 33.414C202.004 32.61 202.19 31.908 202.562 31.308C202.934 30.708 203.468 30.24 204.164 29.904C204.872 29.568 205.718 29.4 206.702 29.4H209.366V31.596Z" fill="#2B414E"/>
</svg>
