<svg width="400" height="72" viewBox="0 0 400 72" fill="none" xmlns="http://www.w3.org/2000/svg">
<rect y="6" width="394" height="66" fill="#BFD8C3"/>
<rect x="6" width="394" height="66" fill="#339966"/>
<path d="M159.561 34.7C159.561 35.504 159.729 36.218 160.065 36.842C160.401 37.466 160.863 37.958 161.451 38.318C162.039 38.678 162.723 38.858 163.503 38.858C164.283 38.858 164.967 38.678 165.555 38.318C166.143 37.958 166.599 37.466 166.923 36.842C167.259 36.218 167.427 35.504 167.427 34.7C167.427 33.896 167.265 33.182 166.941 32.558C166.617 31.934 166.161 31.442 165.573 31.082C164.985 30.722 164.295 30.542 163.503 30.542C162.723 30.542 162.039 30.722 161.451 31.082C160.863 31.442 160.401 31.934 160.065 32.558C159.729 33.182 159.561 33.896 159.561 34.7ZM156.843 34.7C156.843 33.74 157.011 32.864 157.347 32.072C157.683 31.268 158.151 30.572 158.751 29.984C159.351 29.396 160.053 28.946 160.857 28.634C161.673 28.31 162.555 28.148 163.503 28.148C164.463 28.148 165.345 28.31 166.149 28.634C166.953 28.946 167.655 29.396 168.255 29.984C168.867 30.572 169.335 31.268 169.659 32.072C169.995 32.864 170.163 33.74 170.163 34.7C170.163 35.648 169.995 36.53 169.659 37.346C169.335 38.15 168.873 38.852 168.273 39.452C167.685 40.052 166.983 40.52 166.167 40.856C165.363 41.18 164.475 41.342 163.503 41.342C162.531 41.342 161.637 41.18 160.821 40.856C160.017 40.52 159.315 40.052 158.715 39.452C158.115 38.852 157.653 38.15 157.329 37.346C157.005 36.53 156.843 35.648 156.843 34.7ZM170.594 30.722V28.4H179.954V30.722H176.552V41H173.978V30.722H170.594ZM189.571 30.722H184.099V41H181.489V28.4H192.181V41H189.571V30.722ZM194.987 28.4H197.561V41H194.987V28.4ZM196.553 30.578V28.4H199.055C200.051 28.4 200.897 28.562 201.593 28.886C202.301 29.21 202.841 29.672 203.213 30.272C203.585 30.872 203.771 31.586 203.771 32.414C203.771 33.23 203.585 33.944 203.213 34.556C202.841 35.156 202.301 35.618 201.593 35.942C200.897 36.266 200.051 36.428 199.055 36.428H196.553V34.25H199.055C199.739 34.25 200.279 34.094 200.675 33.782C201.071 33.47 201.269 33.014 201.269 32.414C201.269 31.802 201.071 31.346 200.675 31.046C200.279 30.734 199.739 30.578 199.055 30.578H196.553ZM206.243 38.138L206.549 36.104H212.597L212.903 38.138H206.243ZM209.537 32.486L207.647 36.824L207.701 37.4L206.045 41H203.147L209.537 27.662L215.927 41H213.011L211.391 37.508L211.427 36.86L209.537 32.486ZM219.22 34.61V33.44H221.254C221.626 33.44 221.95 33.38 222.226 33.26C222.502 33.14 222.712 32.966 222.856 32.738C223.012 32.51 223.09 32.24 223.09 31.928C223.09 31.448 222.922 31.082 222.586 30.83C222.262 30.578 221.818 30.452 221.254 30.452H219.868V38.948H221.524C221.956 38.948 222.346 38.888 222.694 38.768C223.042 38.636 223.312 38.432 223.504 38.156C223.708 37.88 223.81 37.526 223.81 37.094C223.81 36.782 223.75 36.518 223.63 36.302C223.522 36.074 223.36 35.888 223.144 35.744C222.94 35.588 222.7 35.48 222.424 35.42C222.148 35.348 221.848 35.312 221.524 35.312H219.22V33.908H221.758C222.37 33.908 222.952 33.974 223.504 34.106C224.068 34.238 224.572 34.448 225.016 34.736C225.46 35.012 225.808 35.372 226.06 35.816C226.324 36.26 226.456 36.794 226.456 37.418C226.456 38.246 226.258 38.924 225.862 39.452C225.478 39.98 224.932 40.37 224.224 40.622C223.516 40.874 222.694 41 221.758 41H217.294V28.4H221.488C222.328 28.4 223.066 28.52 223.702 28.76C224.338 28.988 224.836 29.336 225.196 29.804C225.556 30.272 225.736 30.866 225.736 31.586C225.736 32.222 225.556 32.768 225.196 33.224C224.836 33.68 224.338 34.028 223.702 34.268C223.066 34.496 222.328 34.61 221.488 34.61H219.22ZM240.007 31.118L228.649 41.63L228.739 38.282L240.097 27.77L240.007 31.118ZM231.133 28.4V38.948L228.649 41.63V28.4H231.133ZM240.097 27.77V41H237.613V30.524L240.097 27.77ZM241.575 30.722V28.4H250.935V30.722H247.533V41H244.959V30.722H241.575ZM252.397 28.4H254.971V41H252.397V28.4ZM253.963 35.15V32.972H256.465C257.461 32.972 258.307 33.134 259.003 33.458C259.711 33.782 260.251 34.244 260.623 34.844C260.995 35.444 261.181 36.158 261.181 36.986C261.181 37.802 260.995 38.516 260.623 39.128C260.251 39.728 259.711 40.19 259.003 40.514C258.307 40.838 257.461 41 256.465 41H253.963V38.822H256.465C256.921 38.822 257.311 38.756 257.635 38.624C257.971 38.48 258.229 38.27 258.409 37.994C258.589 37.718 258.679 37.382 258.679 36.986C258.679 36.59 258.589 36.254 258.409 35.978C258.229 35.702 257.971 35.498 257.635 35.366C257.311 35.222 256.921 35.15 256.465 35.15H253.963Z" fill="#F8F4EF"/>
</svg>
