<svg width="41" height="41" viewBox="0 0 41 41" fill="none" xmlns="http://www.w3.org/2000/svg">
<rect width="41" height="41" fill="#71B482"/>
<path d="M13.2233 12.4014C13.0264 12.4343 12.8952 12.5328 12.7639 12.6642C12.6655 12.8285 12.5999 12.9927 12.5999 13.157C12.5999 15.9165 13.2889 18.4789 14.6669 20.8442C16.045 23.1439 17.8495 24.9835 20.1462 26.3304C22.5085 27.7102 25.0677 28.4001 27.8237 28.4001C28.0206 28.4001 28.1846 28.3673 28.3158 28.2359C28.4799 28.1373 28.5783 27.9731 28.5783 27.7759L29.3658 24.3593C29.4314 24.1951 29.3986 24.0309 29.3001 23.8337C29.2345 23.6694 29.1033 23.5381 28.9064 23.4724L25.2317 21.8955C25.1005 21.8298 24.9364 21.8298 24.7724 21.8626C24.6083 21.9284 24.4443 21.9941 24.313 22.1255L22.7054 24.0966C21.4257 23.5052 20.2774 22.7168 19.2931 21.6984C18.3088 20.7128 17.4886 19.563 16.898 18.2818L18.8666 16.6721C18.9978 16.5407 19.0963 16.4093 19.1291 16.245C19.1947 16.0808 19.1619 15.9165 19.0963 15.7523L17.5214 12.0729C17.4558 11.9086 17.3574 11.7772 17.1605 11.6787C16.9965 11.613 16.8324 11.5801 16.6356 11.613L13.2233 12.4014Z" fill="#F8F4EF"/>
</svg>
